<?xml version="1.0" encoding="utf-8"?>
<!-- Generator: Adobe Illustrator 18.0.0, SVG Export Plug-In . SVG Version: 6.00 Build 0)  -->
<!DOCTYPE svg PUBLIC "-//W3C//DTD SVG 1.1//EN" "http://www.w3.org/Graphics/SVG/1.1/DTD/svg11.dtd">
<svg version="1.1" id="Capa_1" xmlns="http://www.w3.org/2000/svg" xmlns:xlink="http://www.w3.org/1999/xlink" x="0px" y="0px"
	 viewBox="185.6 0 2171.6 1785.8" enable-background="new 185.6 0 2171.6 1785.8" xml:space="preserve">
<g>
	<g>
		<path d="M2144.6,866.1l-455.5-455.9c-14.3-14.3-39.4-14.3-53.4,0l-99.1,99.1c-14.6,14.6-14.6,38.7,0,53.4L1867,892.9l-330.3,330.3
			c-14.6,14.6-14.6,38.7,0,53.4l98.7,98.7c7,7,16.7,11.2,26.9,11.2c10.1,0,19.5-3.8,26.9-11.2l455.9-455.9
			C2159.6,904.8,2159.6,880.7,2144.6,866.1z"/>
		<path d="M989,1223.2L658.7,892.9L989,562.6c7-7,11.2-16.7,11.2-26.9s-3.8-19.5-11.2-26.9l-98.7-98.7c-7-7-16.7-11.2-26.9-11.2
			c-10.1,0-19.5,3.8-26.9,11.2L381.1,866.1c-14.6,14.6-14.6,38.7,0,53.4L837,1375.3c7,7,16.7,11.2,26.9,11.2
			c10.1,0,19.5-3.8,26.9-11.2l98.7-98.7C1003.7,1261.6,1003.7,1237.9,989,1223.2z"/>
		<path d="M1522,257.1c-4.9-8.7-12.9-15.3-22.3-18.1l-80.2-23.7c-19.9-5.9-41.2,5.6-47.1,25.5l-371.8,1259.5
			c-2.8,9.8-1.7,19.9,3.1,28.6c4.9,8.7,12.9,15.3,22.3,18.1l80.2,23.7c3.5,1,7.3,1.4,10.8,1.4c16.4,0,31.4-10.8,36.3-27.2
			l371.8-1259.2C1527.9,276.2,1526.9,265.8,1522,257.1z"/>
	</g>
</g>
</svg>
