<?xml version="1.0" encoding="utf-8"?>
<!-- Generator: Adobe Illustrator 18.0.0, SVG Export Plug-In . SVG Version: 6.00 Build 0)  -->
<!DOCTYPE svg PUBLIC "-//W3C//DTD SVG 1.1//EN" "http://www.w3.org/Graphics/SVG/1.1/DTD/svg11.dtd">
<svg version="1.1" id="Capa_1" xmlns="http://www.w3.org/2000/svg" xmlns:xlink="http://www.w3.org/1999/xlink" x="0px" y="0px"
	 viewBox="323.5 0 1913.6 1844" enable-background="new 323.5 0 1913.6 1844" xml:space="preserve">
<g>
	<path id="LinkedIn" d="M2155.8,1085.8v660.3h-382.6v-616c0-154.9-55.5-260.2-193.9-260.2c-105.7,0-168.8,71.2-196.4,139.9
		c-10.1,24.8-12.6,58.9-12.6,93.5v643.2H986.9c0,0,5.2-1043.3,0-1151.4h383v163.2c-0.7,1-1.7,2.4-2.4,3.8h2.4v-3.8
		c50.9-78.5,141.6-190.1,345-190.1C1967.1,567.8,2155.8,732.1,2155.8,1085.8z M586.5,39.8c-130.8,0-216.6,85.8-216.6,198.8
		c0,110.6,83.4,199.2,211.7,199.2h2.4c133.6,0,216.6-88.6,216.6-199.2C798.2,125.6,717.7,39.8,586.5,39.8z M392.6,1746.1h382.6
		V594.7H392.6V1746.1z"/>
</g>
</svg>
