<?xml version="1.0" encoding="utf-8"?>
<!-- Generator: Adobe Illustrator 18.0.0, SVG Export Plug-In . SVG Version: 6.00 Build 0)  -->
<!DOCTYPE svg PUBLIC "-//W3C//DTD SVG 1.1//EN" "http://www.w3.org/Graphics/SVG/1.1/DTD/svg11.dtd">
<svg version="1.1" id="Layer_1" xmlns="http://www.w3.org/2000/svg" xmlns:xlink="http://www.w3.org/1999/xlink" x="0px" y="0px"
	 viewBox="403 -38.2 1708 1692" enable-background="new 403 -38.2 1708 1692" xml:space="preserve">
<title>Monogram</title>
<desc>Created with Sketch.</desc>
<g id="Page-1">
	<g id="Monogram">
		<path id="Shape" d="M619.5,559.7c2.6-20.3-6.3-40.6-21.5-54.5L444.4,318.7v-27.9h482l372.9,816.9l326-816.9h459.2v27.9
			l-133.2,126.9c-11.5,8.9-16.5,22.8-15.2,36.8v934.8c-2.6,13.9,3.8,27.9,15.2,36.8l129.4,126.9v27.9h-652v-27.9l134.5-130.6
			c12.7-12.7,12.7-16.5,12.7-36.8V658.6l-372.9,947.6h-50.7L719.7,658.6v635.5c-3.8,26.7,5,53.3,24.1,72.3l173.8,213.1v27.9H422.8
			v-27.9l175-211.9c19.1-19.1,26.7-46.9,22.8-72.3V559.7H619.5z"/>
	</g>
</g>
</svg>
