<?xml version="1.0" encoding="utf-8"?>
<!-- Generator: Adobe Illustrator 18.0.0, SVG Export Plug-In . SVG Version: 6.00 Build 0)  -->
<!DOCTYPE svg PUBLIC "-//W3C//DTD SVG 1.1//EN" "http://www.w3.org/Graphics/SVG/1.1/DTD/svg11.dtd">
<svg version="1.1" id="Capa_1" xmlns="http://www.w3.org/2000/svg" xmlns:xlink="http://www.w3.org/1999/xlink" x="0px" y="0px"
	 viewBox="307 -78.2 1892 1932" enable-background="new 307 -78.2 1892 1932" xml:space="preserve">
<g>
	<path d="M2089.8,4.2l-189,86.2c-12.2,5.6-23.4,13.3-32.8,22.7l-308,308L499.7,293.7c-19.2-2.1-38.4,4.2-52,18.1l-59.3,59.3
		c-31.4,31.4-21.6,84.1,18.8,102.2l760,340.8l-218.3,218.3H568c-16.7,0-32.8,6.6-44.6,18.5l-31.7,32.1
		c-31.7,31.7-21.3,85.1,19.9,102.5l321.6,137.8l137.8,321.6c17.4,40.8,71.2,51.3,102.5,19.9l32.1-32.1
		c11.9-11.9,18.5-27.9,18.5-44.6v-381.6l218.3-218.3l340.8,760c18.1,40.5,70.8,50.2,102.2,18.8l58.9-58.9c14-14,20.2-32.8,18.1-52
		L1735.1,595.7l308-308c9.4-9.4,17.1-20.6,22.7-32.8l86.2-189C2169.4,26.9,2129.2-13.6,2089.8,4.2z"/>
</g>
</svg>
